<svg xmlns="http://www.w3.org/2000/svg" xmlns:xlink="http://www.w3.org/1999/xlink" width="32" height="32" preserveAspectRatio="xMidYMid meet" viewBox="0 0 32 32" style="-ms-transform: rotate(360deg); -webkit-transform: rotate(360deg); transform: rotate(360deg);"><path d="M30.94 15.66A16.69 16.69 0 0 0 16 5A16.69 16.69 0 0 0 1.06 15.66a1 1 0 0 0 0 .68A16.69 16.69 0 0 0 16 27a16.69 16.69 0 0 0 14.94-10.66a1 1 0 0 0 0-.68zM16 25c-5.3 0-10.9-3.93-12.93-9C5.1 10.93 10.7 7 16 7s10.9 3.93 12.93 9C26.9 21.07 21.3 25 16 25z" fill="#626262"/><path d="M16 10a6 6 0 1 0 6 6a6 6 0 0 0-6-6zm0 10a4 4 0 1 1 4-4a4 4 0 0 1-4 4z" fill="#626262"/><rect x="0" y="0" width="32" height="32" fill="rgba(0, 0, 0, 0)" /></svg>